HIERARCHY
ROOT Hips
{
    OFFSET   0.000000   0.000000   0.000000
    CHANNELS 6 Xposition Yposition Zposition Zrotation Xrotation Yrotation
    JOINT Chest
    {
        OFFSET   0.000000   8.007240   0.000000
        CHANNELS 3 Zrotation Xrotation Yrotation
        JOINT Chest2
        {
            OFFSET   0.000000  22.077100   0.000000
            CHANNELS 3 Zrotation Xrotation Yrotation
            JOINT Neck
            {
                OFFSET   0.000000  23.254800   0.000000
                CHANNELS 3 Zrotation Xrotation Yrotation
                JOINT Head
                {
                    OFFSET   0.000000  14.370000   1.956600
                    CHANNELS 3 Zrotation Xrotation Yrotation
                    End Site
                    {
                        OFFSET   0.000000  19.566000   0.000000
                    }
                }
            }
            JOINT LeftCollar
            {
                OFFSET   3.911900  19.017000  -0.467064
                CHANNELS 3 Zrotation Xrotation Yrotation
                JOINT LeftShoulder
                {
                    OFFSET  10.383700   0.000000   0.000000
                    CHANNELS 3 Zrotation Xrotation Yrotation
                    JOINT LeftElbow
                    {
                        OFFSET  26.662100   0.001476   0.000517
                        CHANNELS 3 Zrotation Xrotation Yrotation
                        JOINT LeftWrist
                        {
                            OFFSET  28.869000  -0.000025  -0.000106
                            CHANNELS 3 Zrotation Xrotation Yrotation
                            JOINT LeftFinger0
                            {
                                OFFSET   2.044660  -2.323460   3.252850
                                CHANNELS 3 Zrotation Xrotation Yrotation
                                JOINT LeftFinger01
                                {
                                    OFFSET   3.088130   0.000000   0.000000
                                    CHANNELS 3 Zrotation Xrotation Yrotation
                                    JOINT LeftFinger02
                                    {
                                        OFFSET   2.639460   0.000000   0.000000
                                        CHANNELS 3 Zrotation Xrotation Yrotation
                                        End Site
                                        {
                                            OFFSET   2.582190   0.000000   0.000000
                                        }
                                    }
                                }
                            }
                            JOINT LeftFinger1
                            {
                                OFFSET   8.364480   0.000000   3.252850
                                CHANNELS 3 Zrotation Xrotation Yrotation
                                JOINT LeftFinger11
                                {
                                    OFFSET   4.646930   0.000000   0.000000
                                    CHANNELS 3 Zrotation Xrotation Yrotation
                                    JOINT LeftFinger12
                                    {
                                        OFFSET   2.323460   0.000000   0.000000
                                        CHANNELS 3 Zrotation Xrotation Yrotation
                                        End Site
                                        {
                                            OFFSET   2.273050   0.000000   0.000000
                                        }
                                    }
                                }
                            }
                            JOINT LeftFinger2
                            {
                                OFFSET   8.364490   0.000015   1.078090
                                CHANNELS 3 Zrotation Xrotation Yrotation
                                JOINT LeftFinger21
                                {
                                    OFFSET   5.111620   0.000000   0.000000
                                    CHANNELS 3 Zrotation Xrotation Yrotation
                                    JOINT LeftFinger22
                                    {
                                        OFFSET   2.788160   0.000016   0.000000
                                        CHANNELS 3 Zrotation Xrotation Yrotation
                                        End Site
                                        {
                                            OFFSET   2.727660   0.000000   0.000000
                                        }
                                    }
                                }
                            }
                            JOINT LeftFinger3
                            {
                                OFFSET   7.899780   0.000017  -1.078090
                                CHANNELS 3 Zrotation Xrotation Yrotation
                                JOINT LeftFinger31
                                {
                                    OFFSET   4.646930   0.000000   0.000000
                                    CHANNELS 3 Zrotation Xrotation Yrotation
                                    JOINT LeftFinger32
                                    {
                                        OFFSET   2.323470   0.000000   0.000000
                                        CHANNELS 3 Zrotation Xrotation Yrotation
                                        End Site
                                        {
                                            OFFSET   2.273050   0.000000   0.000000
                                        }
                                    }
                                }
                            }
                            JOINT LeftFinger4
                            {
                                OFFSET   7.435090   0.000000  -3.252850
                                CHANNELS 3 Zrotation Xrotation Yrotation
                                JOINT LeftFinger41
                                {
                                    OFFSET   3.717550   0.000000   0.000000
                                    CHANNELS 3 Zrotation Xrotation Yrotation
                                    JOINT LeftFinger42
                                    {
                                        OFFSET   1.858770   0.000000   0.000000
                                        CHANNELS 3 Zrotation Xrotation Yrotation
                                        End Site
                                        {
                                            OFFSET   1.818440   0.000000   0.000000
                                        }
                                    }
                                }
                            }
                        }
                    }
                }
            }
            JOINT RightCollar
            {
                OFFSET  -3.911900  19.017000  -0.467063
                CHANNELS 3 Zrotation Xrotation Yrotation
                JOINT RightShoulder
                {
                    OFFSET -10.383700   0.000019   0.000000
                    CHANNELS 3 Zrotation Xrotation Yrotation
                    JOINT RightElbow
                    {
                        OFFSET -26.662100   0.001175   0.000102
                        CHANNELS 3 Zrotation Xrotation Yrotation
                        JOINT RightWrist
                        {
                            OFFSET -28.869000   0.000016  -0.000079
                            CHANNELS 3 Zrotation Xrotation Yrotation
                            JOINT RightFinger0
                            {
                                OFFSET  -2.044660  -2.323490   3.252850
                                CHANNELS 3 Zrotation Xrotation Yrotation
                                JOINT RightFinger01
                                {
                                    OFFSET  -3.088140   0.000000   0.000000
                                    CHANNELS 3 Zrotation Xrotation Yrotation
                                    JOINT RightFinger02
                                    {
                                        OFFSET  -2.639460   0.000000   0.000000
                                        CHANNELS 3 Zrotation Xrotation Yrotation
                                        End Site
                                        {
                                            OFFSET  -2.582190   0.000000   0.000000
                                        }
                                    }
                                }
                            }
                            JOINT RightFinger1
                            {
                                OFFSET  -8.364480   0.000000   3.252850
                                CHANNELS 3 Zrotation Xrotation Yrotation
                                JOINT RightFinger11
                                {
                                    OFFSET  -4.646930   0.000000   0.000000
                                    CHANNELS 3 Zrotation Xrotation Yrotation
                                    JOINT RightFinger12
                                    {
                                        OFFSET  -2.323470   0.000000   0.000000
                                        CHANNELS 3 Zrotation Xrotation Yrotation
                                        End Site
                                        {
                                            OFFSET  -2.273050   0.000000   0.000000
                                        }
                                    }
                                }
                            }
                            JOINT RightFinger2
                            {
                                OFFSET  -8.364480   0.000000   1.078090
                                CHANNELS 3 Zrotation Xrotation Yrotation
                                JOINT RightFinger21
                                {
                                    OFFSET  -5.111620   0.000000   0.000000
                                    CHANNELS 3 Zrotation Xrotation Yrotation
                                    JOINT RightFinger22
                                    {
                                        OFFSET  -2.788160   0.000000   0.000000
                                        CHANNELS 3 Zrotation Xrotation Yrotation
                                        End Site
                                        {
                                            OFFSET  -2.727660   0.000000   0.000000
                                        }
                                    }
                                }
                            }
                            JOINT RightFinger3
                            {
                                OFFSET  -7.899780   0.000000  -1.078090
                                CHANNELS 3 Zrotation Xrotation Yrotation
                                JOINT RightFinger31
                                {
                                    OFFSET  -4.646930   0.000000   0.000000
                                    CHANNELS 3 Zrotation Xrotation Yrotation
                                    JOINT RightFinger32
                                    {
                                        OFFSET  -2.323470   0.000000   0.000000
                                        CHANNELS 3 Zrotation Xrotation Yrotation
                                        End Site
                                        {
                                            OFFSET  -2.273050   0.000000   0.000000
                                        }
                                    }
                                }
                            }
                            JOINT RightFinger4
                            {
                                OFFSET  -7.435090   0.000000  -3.252850
                                CHANNELS 3 Zrotation Xrotation Yrotation
                                JOINT RightFinger41
                                {
                                    OFFSET  -3.717550   0.000000   0.000000
                                    CHANNELS 3 Zrotation Xrotation Yrotation
                                    JOINT RightFinger42
                                    {
                                        OFFSET  -1.858770   0.000000   0.000000
                                        CHANNELS 3 Zrotation Xrotation Yrotation
                                        End Site
                                        {
                                            OFFSET  -1.818440   0.000000   0.000000
                                        }
                                    }
                                }
                            }
                        }
                    }
                }
            }
        }
    }
    JOINT LeftHip
    {
        OFFSET   9.783040   0.000000   0.000000
        CHANNELS 3 Zrotation Xrotation Yrotation
        JOINT LeftKnee
        {
            OFFSET   0.000032 -41.789100  -0.002222
            CHANNELS 3 Zrotation Xrotation Yrotation
            JOINT LeftAnkle
            {
                OFFSET   0.000087 -41.133200  -0.000135
                CHANNELS 3 Zrotation Xrotation Yrotation
                JOINT LeftToe
                {
                    OFFSET   0.000000  -6.358960  14.674500
                    CHANNELS 3 Zrotation Xrotation Yrotation
                    End Site
                    {
                        OFFSET   0.000000   0.000000   3.913200
                    }
                }
            }
        }
    }
    JOINT RightHip
    {
        OFFSET  -9.783040   0.000000   0.000000
        CHANNELS 3 Zrotation Xrotation Yrotation
        JOINT RightKnee
        {
            OFFSET   0.000047 -41.789100  -0.000896
            CHANNELS 3 Zrotation Xrotation Yrotation
            JOINT RightAnkle
            {
                OFFSET  -0.000117 -41.133300  -0.000248
                CHANNELS 3 Zrotation Xrotation Yrotation
                JOINT RightToe
                {
                    OFFSET   0.000000  -6.358970  14.674500
                    CHANNELS 3 Zrotation Xrotation Yrotation
                    End Site
                    {
                        OFFSET   0.000000   0.000000   3.913200
                    }
                }
            }
        }
    }
}
MOTION
Frames: 6
Frame Time:   0.016667
  1.657640  89.420100   5.948770  -4.366820 -11.758500  -1.406860   1.151830   8.673850   2.003960   2.027590  17.381700   3.897300  -5.365050   3.247270   0.304772  -8.890870   6.412210  11.961300  -7.422220  -1.157770  -0.976029 -68.441600  15.510800 -11.658600  -2.990460  -6.549650 -11.048400   9.506020  -6.550920  14.236300  39.539700  27.351600 -61.905400 -25.079100   0.006518   0.003106  -7.539550   0.000521   0.004248 -35.633800   7.623190 -10.484900 -29.728000  -0.002171  -0.004162 -20.809600  -0.010323  -0.004305 -28.598600   3.546130  -6.472580 -43.221300   0.003557  -0.004656 -28.785400  -0.000331  -0.000337 -29.463700   1.092600  -1.933370 -44.223100  -0.000336   0.020639 -29.452600  -0.004217   0.013243 -40.300400  -1.163100   1.370870 -60.471600  -0.001640   0.002913 -40.274100  -0.008424   0.002794  -0.675567  -6.271350  12.530200  28.654100 -15.603800  71.136300 -29.423800   0.313245  46.362000   2.407330  47.861300   1.291590 -60.871700  57.123700 109.864000  38.788700  -0.003275  -0.001807  14.402200  -0.005073  -0.000903  88.996200   4.998900   0.087478  74.913800   0.000936   0.004687  56.185400   0.002833   0.001294  88.596200  -0.003959   0.001063  88.694200  -0.000289   0.004245  66.520600   0.005580  -0.001604  80.572300  -4.933750  -0.818015  80.607600  -0.000549  -0.001380  60.455700  -0.000222   0.001991  88.984900 -10.000200  -0.174953 110.000000  -0.002960   0.002426  80.000000   0.000303  -0.001145   4.087740  16.361000   3.913040   0.742228   0.610611   8.489640  -2.698830  -4.689990  -0.304640   0.000000   0.000000   0.000000   2.470230  10.329500  -5.327640   0.830757   5.972610  -5.329630  -3.644380  -3.614390   3.097390   0.000000   0.000000   0.000000
  1.694710  89.424500   5.990010  -4.322710 -11.725700  -1.309220   1.159850   8.657510   2.004360   2.042300  17.349100   3.897570  -5.419990   3.226150   0.304660  -8.984120   6.366330  12.139900  -7.445690  -1.125960  -0.984938 -68.383500  15.605700 -11.640000  -3.004880  -6.630750 -10.931500   9.359440  -6.390620  14.243000  39.587700  27.390200 -62.024100 -24.984500   0.006518   0.003109  -7.492290   0.000517   0.004353 -35.578600   7.599530 -10.484500 -29.687100   0.003123   0.015424 -20.781000  -0.011794   0.014610 -28.592200   3.607050  -6.584470 -43.092900   0.003535  -0.004625 -28.699900  -0.000285   0.002318 -29.382600   1.093060  -1.935760 -44.102000  -0.000336   0.037913 -29.371900  -0.009429   0.023123 -40.200900  -1.133770   1.341000 -60.321400  -0.001641   0.002964 -40.174000  -0.008377   0.002875  -0.679420  -6.169440  12.519700  28.277600 -15.286100  70.970600 -29.447800   0.019816  46.076800   2.745190  47.584900   1.302920 -60.317900  57.051000 109.118000  39.317400  -0.003774  -0.002584  14.623300  -0.005918  -0.001397  88.996200   4.998680   0.087471  74.659700   0.000816   0.004666  55.994800   0.002644   0.000880  88.925700  -0.003876   0.000914  89.218400  -0.000109   0.004393  66.913800   0.005156  -0.001828  80.508500  -4.932340  -0.823502  80.543900  -0.000482  -0.001860  60.408000  -0.000425   0.002064  88.984800 -10.000500  -0.175435 110.000000  -0.003291   0.002327  80.000000   0.000362  -0.001104   4.049510  16.317500   3.901920   0.732081   0.634343   8.463630  -2.696270  -4.697250  -0.334828  -0.000000   0.000000   0.000000   2.439740  10.324000  -5.331890   0.815643   5.977500  -5.345670  -3.625890  -3.646800   3.032310  -0.000000   0.000000   0.000000
  1.726980  89.429200   6.025980  -4.289190 -11.687800  -1.268270   1.162590   8.636100   2.007660   2.050010  17.306600   3.903360  -5.436270   3.196240   0.303913  -9.006460   6.306450  12.219400  -7.468150  -1.087880  -1.003900 -68.335100  15.699500 -11.642000  -2.992520  -6.678530 -10.711700   9.228280  -6.208220  14.261700  39.625300  27.385200 -62.089800 -24.890000   0.006517   0.003109  -7.445030   0.000515   0.004457 -35.536300   7.596120 -10.485400 -29.646300   0.011787   0.043307 -20.752400  -0.012577   0.041139 -28.582500   3.687490  -6.732390 -42.951800   0.003493  -0.004592 -28.605900  -0.000234   0.007478 -29.304800   1.096280  -1.952450 -43.985300  -0.000336   0.049295 -29.294200  -0.014424   0.029461 -40.103400  -1.105030   1.311720 -60.174100  -0.001641   0.003015 -40.075900  -0.008330   0.002956  -0.685275  -6.070240  12.498200  27.927300 -14.968100  70.841400 -29.445800  -0.189200  45.610900   2.924380  47.315900   1.364280 -58.974500  56.791300 107.482000  39.834800  -0.004297  -0.003541  14.842900  -0.006732  -0.002063  88.996200   4.998430   0.087464  74.278700   0.000696   0.004657  55.709000   0.002476   0.000491  89.060900  -0.003810   0.000760  89.715000   0.000061   0.004624  67.286300   0.004735  -0.002026  80.388400  -4.929310  -0.833848  80.424200  -0.000413  -0.002326  60.318200  -0.000627   0.002131  88.984700 -10.000700  -0.175931 110.000000  -0.003623   0.002225  80.000000   0.000421  -0.001048   4.004170  16.268400   3.883230   0.725308   0.666447   8.448040  -2.687970  -4.704520  -0.339144   0.000000   0.000000  -0.000000   2.406050  10.316300  -5.342220   0.798450   5.982530  -5.348000  -3.605020  -3.673870   3.003370   0.000000   0.000000   0.000000
  1.757050  89.434600   6.059470  -4.266990 -11.647000  -1.265830   1.161150   8.607840   2.023890   2.046780  17.250400   3.936460  -5.404890   3.155860   0.298843  -8.949030   6.229330  12.212700  -7.489300  -1.037410  -1.027320 -68.324300  15.696200 -11.664500  -2.947010  -6.661280 -10.472500   9.154280  -6.034950  14.300100  39.606800  27.366100 -62.077600 -24.912100   0.006516   0.003100  -7.456060   0.000518   0.004567 -35.529300   7.620020 -10.520600 -29.646800   0.019970   0.056909 -20.752700  -0.009193   0.052675 -28.579300   3.707480  -6.769210 -42.837200   0.003448  -0.004557 -28.529500  -0.000179   0.014841 -29.260600   1.128970  -2.017740 -43.920000  -0.000335   0.041674 -29.250700  -0.013108   0.024127 -40.045600  -1.088030   1.294370 -60.086900  -0.001638   0.003067 -40.017800  -0.008283   0.003035  -0.684754  -5.968530  12.469300  27.891600 -14.741100  70.754900 -29.340100  -0.039689  45.269100   2.755040  47.081800   1.586020 -57.041800  56.199400 105.111000  40.370000  -0.004772  -0.004207  15.119100  -0.007518  -0.002521  88.996200   4.998150   0.087471  74.025300   0.000592   0.004659  55.519000   0.002327   0.000129  89.030500  -0.003765   0.000607  90.154700   0.000227   0.004910  67.616100   0.004311  -0.002196  80.099900  -4.924620  -0.858612  80.136700  -0.000354  -0.002765  60.102600  -0.000832   0.002187  88.984600 -10.001000  -0.176444 110.000000  -0.003951   0.002119  80.000000   0.000483  -0.000980   3.954260  16.225400   3.865920   0.723052   0.676326   8.434820  -2.669160  -4.704470  -0.308062   0.000000   0.000000   0.000000   2.363500  10.313000  -5.359100   0.788082   5.972980  -5.335780  -3.579580  -3.691810   3.005660  -0.000000   0.000000   0.000000
  1.786630  89.440100   6.090230  -4.249200 -11.605000  -1.265320   1.158730   8.574990   2.047860   2.037720  17.185000   3.986120  -5.336010   3.107940   0.290066  -8.836440   6.138530  12.176900  -7.509410  -0.981568  -1.056420 -68.320600  15.680500 -11.686400  -2.883410  -6.631490 -10.233000   9.129670  -5.937730  14.348100  39.557300  27.308700 -62.028000 -24.945500   0.006515   0.003085  -7.472750   0.000520   0.004679 -35.528000   7.665210 -10.581000 -29.650000   0.024783   0.062214 -20.754900  -0.003310   0.056598 -28.578400   3.713560  -6.780410 -42.778000   0.003396  -0.004520 -28.490100  -0.000121   0.019700 -29.242100   1.179760  -2.106090 -43.895600  -0.000335   0.027388 -29.234500  -0.009540   0.014538 -40.022600  -1.081250   1.287440 -60.052100  -0.001635   0.003120 -39.994700  -0.008237   0.003113  -0.675386  -5.874640  12.432300  27.971800 -14.514700  70.676900 -29.150300   0.266313  44.906900   2.465830  46.853400   1.885620 -55.262300  55.551300 102.934000  40.823700  -0.005451  -0.006513  15.378200  -0.008419  -0.004122  88.996200   4.997830   0.087478  73.898800   0.000497   0.004665  55.424100   0.002192  -0.000211  89.000000  -0.003736   0.000451  90.700700   0.000389   0.005240  68.025600   0.003882  -0.002346  79.786900  -4.920100  -0.885504  79.824800  -0.000289  -0.003194  59.868700  -0.001037   0.002233  88.984500 -10.001300  -0.176965 110.000000  -0.004277   0.002008  80.000000   0.000543  -0.000900   3.904060  16.191100   3.845140   0.721816   0.677805   8.429160  -2.644640  -4.704440  -0.249175  -0.000000   0.000000  -0.000000   2.317140  10.311800  -5.376330   0.781722   5.951890  -5.317320  -3.551650  -3.703900   3.021280   0.000000   0.000000   0.000000
  1.819790  89.445300   6.118630  -4.242870 -11.564700  -1.293070   1.156770   8.538720   2.070720   2.030750  17.112800   4.033170  -5.242580   3.054390   0.280098  -8.679860   6.038140  12.066000  -7.528900  -0.925924  -1.094210 -68.361000  15.585500 -11.679900  -2.814310  -6.615130 -10.036600   9.135670  -5.939430  14.398500  39.477500  27.169900 -61.938600 -24.968700   0.006515   0.003069  -7.484320   0.000511   0.004791 -35.556600   7.726370 -10.650600 -29.679000   0.019142   0.040413 -20.775400   0.003303   0.035552 -28.576900   3.723930  -6.799480 -42.816200   0.003339  -0.004481 -28.515500  -0.000061   0.016073 -29.257200   1.231950  -2.197390 -43.922100  -0.000335   0.008350 -29.252100  -0.001847   0.002850 -40.056900  -1.091320   1.297780 -60.103900  -0.001637   0.003173 -40.029200  -0.008192   0.003192  -0.648923  -5.800120  12.388000  28.093200 -14.236200  70.572000 -28.953500   0.672118  44.494500   1.779780  46.640100   2.256250 -54.384000  55.219400 101.846000  41.107000  -0.006021  -0.010013  15.582800  -0.009009  -0.006791  88.996200   4.997470   0.087477  74.029500   0.000411   0.004669  55.522100   0.002064  -0.000532  89.000000  -0.003720   0.000289  91.602300   0.000545   0.005600  68.701800   0.003440  -0.002488  79.593600  -4.917830  -0.902155  79.632300  -0.000205  -0.003626  59.724300  -0.001239   0.002268  88.984400 -10.001500  -0.177492 110.000000  -0.004604   0.001892  80.000000   0.000598  -0.000808   3.856110  16.177900   3.817690   0.722015   0.654101   8.441010  -2.617770  -4.704850  -0.184758  -0.000000   0.000000   0.000000   2.267460  10.316300  -5.388290   0.785241   5.921220  -5.305930  -3.519400  -3.711490   3.064320  -0.000000   0.000000   0.000000
